/* XPM */
static char *_bcb15e6c0e440cbd5e26538b0cdc546WhkDxneA83xb8XuQ[] = {
/* columns rows colors chars-per-pixel */
"32 32 4 1 ",
"  c None",
". c black",
"X c #FF1600",
"o c #FFF6F6",
/* pixels */
"                                ",
"                                ",
"                                ",
"                                ",
"           .........            ",
"          ....XXX....           ",
"        ....ooXXXoo....         ",
"       ...X.oXXXXXo.X...        ",
"       ...XooXXXXXooX...        ",
"       ..oXXXXXXXXXXXo..        ",
"       ..oXXXoooooXXXo..        ",
"       ..XXXXoooooXXXX..        ",
"       ..ooXoooooooXXo..        ",
"       ..ooXoooooooXXo..        ",
"       ..XXXoooooooXXXX.        ",
"       ..XXXXXooooXXXXX.        ",
"       ..XXX........XXX.        ",
"       .................        ",
"       ....oo..o..oo....        ",
"         ..oo..o..oo..          ",
"         ..oo..o..oo..          ",
"          ..ooooooo..           ",
"          ...........           ",
"            .......             ",
"                                ",
"                                ",
"                                ",
"                                ",
"                                ",
"                                ",
"                                ",
"                                "
};
