/* XPM */
static char *b9ed16a062c648f5e3d7b9149938eb77yRoCOh4rXEPGd1yM[] = {
/* columns rows colors chars-per-pixel */
"32 32 101 2 ",
"   c #0F6838",
".  c #0F683C",
"X  c #116738",
"o  c #10673C",
"O  c #10693B",
"+  c #146C3C",
"@  c #1B6F3C",
"#  c #1D7237",
"$  c #187139",
"%  c #1B723F",
"&  c #1D713F",
"*  c #1C753F",
"=  c #21763D",
"-  c #4E6E25",
";  c #1A7144",
":  c #1C7147",
">  c #207440",
",  c #2C7C47",
"<  c #E61F26",
"1  c #EC1A23",
"2  c #EB1E25",
"3  c #EE1F27",
"4  c #F11E27",
"5  c #ED2027",
"6  c #EA212B",
"7  c #EF2028",
"8  c #E52928",
"9  c #E12C29",
"0  c #E72B2C",
"q  c #E2362C",
"w  c #DD4635",
"e  c #77A739",
"r  c #7BAE38",
"t  c #7CAD38",
"y  c #5F9341",
"u  c #5B9540",
"i  c #639840",
"p  c #649C45",
"a  c #72AF47",
"s  c #76AF48",
"d  c #7CB243",
"f  c #7AB642",
"g  c #7CB540",
"h  c #7CB145",
"j  c #7BB544",
"k  c #7CB544",
"l  c #7FB941",
"z  c #7EBF41",
"x  c #9FAD3E",
"c  c #82BD3F",
"v  c #85BC3C",
"b  c #95B93F",
"n  c #83C03E",
"m  c #8AC23D",
"M  c #8AC63E",
"N  c #8DC73F",
"B  c #8DCA3E",
"V  c #90C63D",
"C  c #92C83F",
"Z  c #F7D921",
"A  c #85A343",
"S  c #8AA240",
"D  c #8BA947",
"F  c #82B941",
"G  c #83BE40",
"H  c #82BC44",
"J  c #86B84F",
"K  c #99B441",
"L  c #92BB41",
"P  c #96B840",
"I  c #92BF40",
"U  c #84C140",
"Y  c #87C244",
"T  c #8BC240",
"R  c #8CC341",
"E  c #8BC441",
"W  c #8CC540",
"Q  c #8AC044",
"!  c #8FC646",
"~  c #8BC940",
"^  c #8EC840",
"/  c #8FC845",
"(  c #8BC54A",
")  c #91C640",
"_  c #90C444",
"`  c #90C843",
"'  c #93C846",
"]  c #95C847",
"[  c #91C848",
"{  c #96CA4B",
"}  c #93CC4B",
"|  c #96CA4C",
" . c #95CC4C",
".. c #98CC4E",
"X. c #98CC50",
"o. c #CDDF71",
"O. c #D2DD74",
"+. c #CEE06E",
"@. c #CEE070",
"#. c #D3E172",
"$. c #D1E174",
/* pixels */
"^ [ ^ ^ ^ ^ ^ N ^ ^ ^ ` [ ^ ^ ^ ^ [ W ^ ` ^ ^ ` ^ ^ W ^ M ^ ^ ^ ",
"} ^   $ ^ ^ ^ ^ ^ ^ ^ { ` ^ ^ ^ ^ ^ ^ ` ` N h ^ ^ ^ ^ ^ ^ ^ ^ ^ ",
"^ ^ g ^ W ^ ^ ^ ^ O ^ ` ` ^ ^ W W ^ $.` ` ^ ^ ^ ^ ^ ^ ^ ^   ^ ^ ",
"^ ^ ^ W N ^ ^ ^ ^ ^ ^ ` ` P T O W ^ ^ ` ` ^ ^ ^ ^ > ^ ^ ^ ^ ^ ^ ",
"^ ^ R ^ ^ ^ ^ ^ D ^ ^ ` ` A ^ ^ ^ ^ ^ ..` Z ^ ^ s M ^ ^ ^ ^ _ B ",
"^ ^ k ^ ^   W [ ^ ^ ) % ! W ^ ^ N ^ R ` ` ^ ^ { ^ ^ W _ ^ T ^ ^ ",
"^ ^ ^ ^ ^ ^ R ^ N 5 ^ ` K ^ ^ ^ ^ [ 4 ^ G B ^ N ^ ^ ^ b  .k ^ ^ ",
"^ ^ ^ ^ ^ ^ ^ W ^ ^ W ` ! ^ ^ ^ N ^ W ^ g ^ ^ ^ ^ ^ ^ Q ^ ^ N ^ ",
"^ W ^ N ^ ^ ^ f ^ N O.` ` B ^ ^ ^ O N ` ! ^ ^ ^ ^ ^ ^ ^ ^ ^ ^ d ",
"^ g W { * ^ ^ ^ W ^ ^ ` ` ^ { ^ ^ ^ N L ` ^ ^ g N { ^ +.^ ^ m ^ ",
"^ ^ W ^ ^ ^ C W N ^ ^ ` ` ' ^ ^ ^ ^ T E ` ^ ^ ^ { ^ ^ ^ ^ R ^ ^ ",
"' T 0 ` ` ` ` W ` ` ` ' _ ` ` ` ` ` ` ' ' % W R ` W ` ` ..` ` ` ",
"^ ! ! ~ ^ ` ^ F ^ N ' ..' ` ` ` = C ' ' ' ` R q ^ ^ ` F a ` ` ^ ",
"^ ^ g ^ W 2 ^ ^ ^ ^ N ` ` W ^ W W ^ W ` ` ^ ^ W 7 ^ R ^ ^ ^ ^ ^ ",
"^ ^ ^ W ^ W ^ ^ 6 { f ` ` ^ W ^ ^ W ^ W p 5 ^ ^ ^ ' ^ ^ ^ X ^ ^ ",
"^ N W N ^ ^ g ^ ' ^ ^ ` ` ' ^ ^ ^ ^ W | ` j ^ ^ { ^ ^ ^ ^ #.W ^ ",
"^ ^ ^ ^ ^ ^ ^ J ^ ^ ^ ` S ^ . ^ ^ N { Y ` 3 ^ { f 3 ^ W E W ^ ^ ",
"^ ^ ^ l ^ ! m ^ ^ 3 ^ ` `   g ^ ^  .^ ` ` ^ ^ ^ ^ ^ W ^ { ^ ^ ^ ",
"W ^ ^ ^ ^ W ^ ^ ^ ^ ' ` ` W ^ ^ ^ ^ W V ` ] ^ ^ ^ g W W & o ^ ^ ",
"^ ` ` ` | ` ^ ^ ^ g ` ' ' ` W ` ` ` I F X.W ` ^ ^ @.` ` F ` ` { ",
"` ` ` ..U c ` ` R ` ` ' ' !  .G + ` ` W ' ` ` ` ` | / U ! ` W ` ",
"^ ^ ' ^ g B ^ ' ^ ^ ^ ` W { ^ ^ ^ ^ < ) W ^ B g [ $.W ^ ^ W ^ ^ ",
"^ R ^ ^ ^ ^ ^ N g ^ ^ W R B ^ ^ 7 ^   % ` ^ N m ^ ^   ^ ^ ^ ^ ^ ",
"^ ^ ^ ^ ^ ' ^ ^ ^ ^ ^ W N W ^ ^ ^ ^ g ' ` ^ ! ^ ^   k ' ^ ^ ^ ^ ",
"t ^ ^ ^ T W ^ ^ ^ ^ ^ ` ^ ^ ^ { ^ u ^ ^ ` ^ ^ ^ ^ ^  .^ i 5 ^ ^ ",
"r ^ W [ N g ^ ^ N _ ^ ' ^ ^ : ^ ^ ^ ^ N , ^ ^ ^ ^ W W ^ ^ ^ N ^ ",
"e ^ [ ^ 9 W ^ 5 W ^ ^ ` H | ^ ^ ^ ^ W Y g ^ B W  .W W n z 1 y ^ ",
"v ^ ^ ^ x 8 ^ ( N W P = W ^ ^ ^ ^ N { ` ` ^ g N ^ g ^ ^ W g ^ ^ ",
"' ^ ^ ^ ^ i ^ M ^ ^ ^ ` ` ^ ^ ^ ^ @ ^ ` ` ^ ^ ^ # ^ ^ N w N ^ ^ ",
"- ^ ^ G ^ ^ ^ N ^ ^ ' o.` ^ ^ ^ ^ W ^ ` ` { ^ ^ ^ ^ ^ ^ ^ ^ ^ ^ ",
"^ ^ N ^  .^ ^   ^ W ^ ` ` ^ ^ ; ^ ^ ^ ` _ k ^ ^ $./ ^ ^ ^   ^ W ",
"^ ^ ^  .^ ^ ^ ^ m ^ ^ ` ^ ^ } ^ ^ ^ ^ T ` ^ ^ ^ W W ^ ^ ^ ^ ! ^ "
};
