/* XPM */
static char *ad0e9301318f4aa3cbd3466c751b886f1guweEyAdLu34Ubu[] = {
/* columns rows colors chars-per-pixel */
"32 32 55 1 ",
"  c None",
". c black",
"X c #3C0606",
"o c #3E0807",
"O c #3C051D",
"+ c #45100C",
"@ c #4D1711",
"# c #4F1912",
"$ c #7C0101",
"% c #5F2A1E",
"& c #79452F",
"* c #3C0479",
"= c #9A0404",
"- c #F70202",
"; c #F80202",
": c #F90202",
"> c #F90C08",
", c #F8160F",
"< c #E6021B",
"1 c #F8271A",
"2 c #C83323",
"3 c #EA593B",
"4 c #F7593B",
"5 c #F75E3E",
"6 c #9A027D",
"7 c #CA0240",
"8 c #986443",
"9 c #A16E4A",
"0 c #F66241",
"q c #F66242",
"w c #DBAF74",
"e c #F6A06A",
"r c #F3AF77",
"t c #F4AF74",
"y c #E1B074",
"u c #EBB97B",
"i c #F4B175",
"p c #3C0480",
"a c #3C03C0",
"s c #3E04F7",
"d c #3C02F9",
"f c #3C02FA",
"g c #6A32DB",
"h c #4F02E0",
"j c #4602EC",
"k c #4F16ED",
"l c #7C45CF",
"z c #9A0C84",
"x c #91028A",
"c c #9862BD",
"v c #EBAF81",
"b c #E3AF8B",
"n c #E1AF8D",
"m c #F4C381",
"M c #F5C381",
/* pixels */
"                                ",
"                                ",
"                                ",
"                                ",
"                                ",
"                                ",
"                                ",
"                                ",
"                                ",
"                                ",
"                                ",
"                                ",
"           ::::::               ",
"          :::::::::::::         ",
"          ===200$305---         ",
"          #X@9mm.wmm            ",
"        X#mXymmm.wmmmm          ",
"        X#mXX8mmmm8#mmm         ",
"          #yyummm%+o#           ",
"          Xmmmmmm9&XX           ",
"           tbvttnre             ",
"          ::h6::d<::            ",
"        -:::h6::d<:::           ",
"       :::::hjhhd<::::          ",
"       004:6jgddlx7>00          ",
"       mmi,dddddddz1mm          ",
"       mmmmdddddddcmmm          ",
"       mmndddddddddkmm          ",
"          dddd  ddds            ",
"         Oppp   app*            ",
"         XXXX    XXX            ",
"        XXXXX    XXXXX          "
};
