/* XPM */
static char *bd653f2978b748e9ae86c4ba738c9028AEz7TkQxHzOwRvXb[] = {
/* columns rows colors chars-per-pixel */
"32 32 68 1 ",
"  c None",
". c #010B00",
"X c #011000",
"o c #021201",
"O c #051803",
"+ c #071A06",
"@ c #061C05",
"# c #081F06",
"$ c #092208",
"% c #0A2408",
"& c gray13",
"* c #034100",
"= c #054401",
"- c #045000",
"; c #0E590A",
": c #13630E",
"> c #067000",
", c #077201",
"< c #087301",
"1 c #087401",
"2 c #087402",
"3 c #0C7D06",
"4 c #156810",
"5 c #1A7314",
"6 c #0F8308",
"7 c #11870A",
"8 c #15900D",
"9 c #179610",
"0 c #189710",
"q c #189811",
"w c #199811",
"e c #1A9B12",
"r c #1A9C12",
"t c #1C9F13",
"y c #24871D",
"u c #268D1F",
"i c #1FA616",
"p c #21AA18",
"a c #21AB18",
"s c #22AD19",
"d c #24B11B",
"f c #25B21B",
"g c #25B31C",
"h c #26B41C",
"j c #26B51D",
"k c #26B61D",
"l c #27B81E",
"z c #2A9422",
"x c #34B72A",
"c c #2DC523",
"v c #2EC724",
"b c #30CC26",
"n c #33D128",
"m c #36D82B",
"M c #39DE2D",
"N c #3BE32F",
"B c #3EE932",
"V c #42F236",
"C c #43F336",
"Z c #43F537",
"A c #44F637",
"S c #45F838",
"D c #45F938",
"F c #45F939",
"G c #47FC3A",
"H c #47FD3A",
"J c #47FE3B",
"K c #48FF3B",
/* pixels */
"                                ",
"                                ",
"                                ",
"                                ",
"                                ",
"                                ",
"                                ",
"                                ",
"                                ",
"                                ",
"                                ",
"                                ",
"                                ",
"                                ",
"        %@@@@@%@&%&&%%@&        ",
"        @CCSKKCCCCCCCCC%        ",
"        @N8pKKin>>>mhN1%        ",
"        %KwpKKgB>>>hlK1%        ",
"        %KwpKKgB>>>8dK1%        ",
"        %KwpKKgB>>><pK1@        ",
"        %KwpKKgB>>>0dK1&        ",
"        @z;:zz4y***u5z=@        ",
"        %&+@X%%XXX#$O.&&        ",
"         @xc3KK>>dwHp-%         ",
"         @xc3KK>>rdSp-%         ",
"         %xc3KK>>7vAp-%         ",
"         %xc3KK>>>MCp-@         ",
"         %xc3KK>>6bZp-&         ",
"         %xc3KK>>whSp-@         ",
"         @xc3KK>>stHp-&         ",
"         @xc3KK>>h9Hp-@         ",
"         &%@%&&@%%%%@&&         "
};
