
/* XPM */
static char *_148cf0ce0534cdddcfeb15306f2ac5a5zPHeQ2jdlEY1tPu[] = {
/* columns rows colors chars-per-pixel */
"32 32 6 1 ",
"  c None",
". c black",
"X c #3C0606",
"o c #F90202",
"O c #3C02F9",
"+ c #F4C381",
/* pixels */
"        oooooooooo              ",
"        oooooooooo              ",
"      oooooooooooooooooooooo    ",
"      oooooooooooooooooooooo    ",
"      XXXXXX++++..++++          ",
"      XXXXXX++++..++++          ",
"    XX++XX++++++..+++++++       ",
"    XX++XX++++++..+++++++       ",
"    XX++XXXX++++++++XX+++++     ",
"    XX++XXXX++++++++XX+++++     ",
"      XX++++++++++XXXXXX        ",
"      XX++++++++++XXXXXX        ",
"        ++++++++++++            ",
"        ++++++++++++            ",
"      ooooOOooooOOoooo          ",
"      ooooOOooooOOoooo          ",
"    ooooooOOooooOOoooooo        ",
"    ooooooOOooooOOoooooo        ",
"  ooooooooOOOOOOOOoooooooo      ",
"  ooooooooOOOOOOOOoooooooo      ",
"  ++++ooOOO+OOOO+OOOoo++++      ",
"  ++++ooOOOOOOOOOOOOoo++++      ",
"  ++++++OOOOOOOOOOOO++++++      ",
"  ++++++OOOOOOOOOOOO++++++      ",
"  ++++OOOOOOOOOOOOOOOO++++      ",
"  ++++OOOOOOOOOOOOOOOO++++      ",
"      OOOOOO    OOOOOO          ",
"      OOOOOO    OOOOOO          ",
"     XXXXXX      XXXXXX         ",
"     XXXXXX      XXXXXX         ",
"   XXXXXXXX      XXXXXXXX       ",
"   XXXXXXXX      XXXXXXXX       "
};
