/* XPM */
static char *_0e574cc98a44fc6ceb4bb56c7165c74zvBORY4dpPIFDOud[] = {
/* columns rows colors chars-per-pixel */
"32 32 3 1 ",
"  c black",
". c #3C0B0B",
"X c #4D1B1B",
/* pixels */
"                                ",
"                                ",
"  XXX.................XXX.....  ",
"  XXX.................XXX.....  ",
"  .......XXX............X.....  ",
"  .......XXX..................  ",
"  .......XXXXXXXXXXX........XX  ",
"  .......XXXXXXXXXXX........XX  ",
"  ...XXX.XXX.....XXXXXXX....XX  ",
"  ...XXX.........XXXXXXXXXXXXX  ",
"  ...XXX.........XXX.......XXX  ",
"  ...XXX..........XX.......XXX  ",
"  XXXXXXXXX.......XX.......XXX  ",
"  XXXXXXXXX.......XX.......XX.  ",
"  XXXXXXXXX.......XXXXX.......  ",
"  XXXXXX....XXX....XXXX.......  ",
"  XXXXXX....XXX....XXXX.......  ",
"  ..........XXX....XXXXX......  ",
"  ..........XX.....XXXX....XX.  ",
"  .......XXXXX....XXXXX....XX.  ",
"  ........XXXX....XXXX....XXX.  ",
"  .XXX....XXXX......XX...XX...  ",
"  .XXX.......XXX....X....XX...  ",
"  XXXX.......XXX....X...XXX...  ",
"  XXXXXXX....XXX........XXX...  ",
"  XXXXXX.....XXXXX....XXXXX...  ",
"  ...XXX...XXXXXXX....XXXXX...  ",
"  .........XXXXXX.....XXXX....  ",
"  ........XXXXXXX....XXXXX...X  ",
"  XX.......XXXXXX.....XXX....X  ",
"                                ",
"                                "
};
